<svg width="32" height="32" viewBox="0 0 32 32" fill="none" xmlns="http://www.w3.org/2000/svg">
<g clip-path="url(#clip0_35_2)">
<circle cx="16" cy="16" r="16" fill="black"/>
<path d="M18 12L18.5 11L20.5 10.5L21.5 12.5L20.5 14L22 18.5L20 19.5V22.5L16 24.5L12 22.5V19.5L10 18.5L11.5 14L10.5 12.5L11.5 10.5L13.5 11L14 12H18Z" fill="black"/>
<path d="M14 18H18L16 20.5L14 18Z" fill="#93FF91"/>
<path d="M26 8L22 9.5L23.5 5L17 6.5L16 8.5L14.5 6.5L8.5 5L10 9.5L6 8L8 12L6 18L12 26L16 28L20 26L26 18L24 12L26 8ZM20 19.5V22.5L16 24.5L12 22.5V19.5L10 18.5L11.5 14L10.5 12.5L11.5 10.5L13.5 11L14 12H18L18.5 11L20.5 10.5L21.5 12.5L20.5 14L22 18.5L20 19.5Z" fill="#93FF91"/>
<path d="M18 12L18.5 11L20.5 10.5L21.5 12.5L20.5 14L22 18.5L20 19.5V22.5L16 24.5L12 22.5V19.5L10 18.5L11.5 14L10.5 12.5L11.5 10.5L13.5 11L14 12H18Z" stroke="#32EC22" stroke-miterlimit="10" stroke-linecap="round" stroke-linejoin="round"/>
<path d="M16 8.5L17 6.5L23.5 5L22 9.5L26 8L24 12L26 18L20 26L16 28L12 26L6 18L8 12L6 8L10 9.5L8.5 5L14.5 6.5L16 8.5Z" stroke="#32EC22" stroke-miterlimit="10" stroke-linecap="round" stroke-linejoin="round"/>
<path d="M14 15V16" stroke="#32EC22" stroke-miterlimit="10" stroke-linecap="round" stroke-linejoin="round"/>
<path d="M18 15V16" stroke="#32EC22" stroke-miterlimit="10" stroke-linecap="round" stroke-linejoin="round"/>
<path d="M14 18H18L16 20.5L14 18Z" stroke="#32EC22" stroke-miterlimit="10" stroke-linecap="round" stroke-linejoin="round"/>
<path d="M16 20.5V22" stroke="#32EC22" stroke-miterlimit="10" stroke-linecap="round" stroke-linejoin="round"/>
</g>
<defs>
<clipPath id="clip0_35_2">
<rect width="32" height="32" fill="white"/>
</clipPath>
</defs>
</svg>
